# xmcd CD database file
#
# Track frame offsets:
#	150
#	18630
#	34725
#	55230
#	68760
#	83625
#	95847
#	111102
#	124677
#	145790
#	165585
#	178410
#
# Disc length: 2577 seconds
#
# Revision: 2
# Processed by: cddbd v1.5.2PL0 Copyright (c) Steve Scherf et al.
# Submitted via: CDex 1.51
#
DISCID=a30a0f0c
DTITLE=Pat Pepin - In It For The Long Haul
DYEAR=2009
DGENRE=Blues
TTITLE0=Pat Pepin - Can't Be Satisfied
TTITLE1=Pat Pepin - Don't Call Me Baby (Baby)
TTITLE2=Pat Pepin - Can't Take It With You
TTITLE3=Pat Pepin - Long Haul Trucker
TTITLE4=Pat Pepin - Til Death Do Us Part
TTITLE5=Pat Pepin - This Dress
TTITLE6=Pat Pepin - Why Me
TTITLE7=Pat Pepin - Sneaking Suspicion
TTITLE8=Pat Pepin - Sunday Kind Of Love
TTITLE9=Pat Pepin - Left Me Lonely
TTITLE10=Pat Pepin - Ain't What You Got
TTITLE11=Pat Pepin - Living At A Walmart
EXTD=YEAR: 2009
EXTT0=
EXTT1=
EXTT2=
EXTT3=
EXTT4=
EXTT5=
EXTT6=
EXTT7=
EXTT8=
EXTT9=
EXTT10=
EXTT11=
PLAYORDER=
